<?xml version="1.0" encoding="UTF-8"?>
<svg xmlns="http://www.w3.org/2000/svg" xmlns:xlink="http://www.w3.org/1999/xlink" width="576pt" height="792pt" viewBox="0 0 576 792">
<defs>
<filter id="filter-remove-color" x="0%" y="0%" width="100%" height="100%">
<feColorMatrix color-interpolation-filters="sRGB" values="0 0 0 0 1 0 0 0 0 1 0 0 0 0 1 0 0 0 1 0" />
</filter>
<g>
<g id="glyph-0-0">
<path d="M 11.328125 -0.796875 L 11.328125 -2.625 C 10.3125 -1.84375 9.046875 -1.375 7.640625 -1.375 C 4.53125 -1.375 2.4375 -3.609375 2.4375 -6.515625 C 2.4375 -9.40625 4.546875 -11.609375 7.546875 -11.609375 C 8.90625 -11.609375 10.234375 -11.15625 11.21875 -10.40625 L 11.21875 -12.25 C 10.203125 -12.875 8.90625 -13.203125 7.515625 -13.203125 C 3.484375 -13.203125 0.71875 -10.21875 0.71875 -6.46875 C 0.71875 -2.671875 3.578125 0.203125 7.546875 0.203125 C 8.90625 0.203125 10.28125 -0.140625 11.328125 -0.796875 Z M 11.328125 -0.796875 "/>
</g>
<g id="glyph-0-1">
<path d="M 7.328125 0.203125 C 11.09375 0.203125 13.9375 -2.734375 13.9375 -6.5 C 13.9375 -10.265625 11.09375 -13.203125 7.328125 -13.203125 C 3.5625 -13.203125 0.71875 -10.265625 0.71875 -6.5 C 0.71875 -2.734375 3.5625 0.203125 7.328125 0.203125 Z M 7.328125 -1.375 C 4.484375 -1.375 2.421875 -3.640625 2.421875 -6.5 C 2.421875 -9.359375 4.484375 -11.609375 7.328125 -11.609375 C 10.15625 -11.609375 12.21875 -9.359375 12.21875 -6.5 C 12.21875 -3.640625 10.15625 -1.375 7.328125 -1.375 Z M 7.328125 -1.375 "/>
</g>
<g id="glyph-0-2">
<path d="M 1.453125 0 L 3.109375 0 L 3.109375 -7.328125 C 3.109375 -8.390625 3.09375 -9.375 3.0625 -10.15625 L 3.109375 -10.15625 C 3.6875 -9.296875 4.25 -8.4375 4.84375 -7.59375 L 7.6875 -3.53125 L 10.515625 -7.59375 C 11.109375 -8.4375 11.6875 -9.296875 12.265625 -10.15625 L 12.296875 -10.15625 C 12.28125 -9.375 12.265625 -8.390625 12.265625 -7.328125 L 12.265625 0 L 13.96875 0 L 13.96875 -13 L 12.328125 -13 L 7.71875 -6.390625 L 3.109375 -13 L 1.453125 -13 Z M 1.453125 0 "/>
</g>
<g id="glyph-0-3">
<path d="M 1.453125 0 L 3.15625 0 L 3.15625 -13 L 1.453125 -13 Z M 1.453125 0 "/>
</g>
<g id="glyph-0-4">
<path d="M 1.453125 0 L 5.296875 0 C 7.359375 0 9.0625 -0.5 10.4375 -1.65625 C 11.796875 -2.796875 12.53125 -4.546875 12.53125 -6.5 C 12.53125 -8.453125 11.796875 -10.203125 10.4375 -11.34375 C 9.0625 -12.5 7.359375 -13 5.296875 -13 L 1.453125 -13 Z M 5.1875 -1.546875 L 3.15625 -1.546875 L 3.15625 -11.453125 L 5.1875 -11.453125 C 6.71875 -11.453125 8.03125 -11.171875 9.109375 -10.328125 C 10.171875 -9.484375 10.828125 -8.09375 10.828125 -6.5 C 10.828125 -4.90625 10.171875 -3.515625 9.109375 -2.671875 C 8.03125 -1.828125 6.71875 -1.546875 5.1875 -1.546875 Z M 5.1875 -1.546875 "/>
</g>
<g id="glyph-0-5">
<path d="M 0.09375 0 L 1.828125 0 L 3.28125 -3.625 L 9.140625 -3.625 L 10.609375 0 L 12.4375 0 L 7.125 -13 L 5.390625 -13 Z M 3.875 -5.109375 L 4.734375 -7.265625 C 5.25 -8.546875 5.828125 -10.09375 6.25 -11.1875 L 6.28125 -11.1875 C 6.671875 -10.09375 7.25 -8.53125 7.71875 -7.3125 L 8.5625 -5.109375 Z M 3.875 -5.109375 "/>
</g>
<g id="glyph-0-6">
</g>
<g id="glyph-0-7">
<path d="M 5.09375 0 L 6.84375 0 L 11.828125 -13 L 10.09375 -13 L 7.3125 -5.765625 C 6.859375 -4.59375 6.421875 -3.453125 6 -2.265625 L 5.953125 -2.265625 C 5.53125 -3.46875 5.109375 -4.578125 4.6875 -5.703125 L 1.921875 -13 L 0.09375 -13 Z M 5.09375 0 "/>
</g>
<g id="glyph-0-8">
<path d="M 1.453125 0 L 9.125 0 L 9.125 -1.546875 L 3.15625 -1.546875 L 3.15625 -6 L 8.234375 -6 L 8.234375 -7.515625 L 3.15625 -7.515625 L 3.15625 -11.453125 L 8.953125 -11.453125 L 8.953125 -13 L 1.453125 -13 Z M 1.453125 0 "/>
</g>
<g id="glyph-0-9">
<path d="M 1.453125 0 L 3.109375 0 L 3.109375 -6.53125 C 3.109375 -7.796875 3.09375 -9.109375 3.0625 -10.25 L 3.109375 -10.25 C 3.84375 -9.234375 4.59375 -8.203125 5.34375 -7.21875 L 10.796875 0 L 12.40625 0 L 12.40625 -13 L 10.75 -13 L 10.75 -6.46875 C 10.75 -5.203125 10.765625 -3.890625 10.796875 -2.75 L 10.75 -2.75 C 10.015625 -3.765625 9.265625 -4.796875 8.515625 -5.78125 L 3.0625 -13 L 1.453125 -13 Z M 1.453125 0 "/>
</g>
<g id="glyph-0-10">
<path d="M 10.734375 0 L 10.734375 -1.546875 L 3.53125 -1.546875 L 3.515625 -1.578125 L 10.875 -12.96875 L 10.859375 -13 L 0.984375 -13 L 0.984375 -11.453125 L 7.859375 -11.453125 L 7.875 -11.421875 L 0.515625 -0.03125 L 0.53125 0 Z M 10.734375 0 "/>
</g>
<g id="glyph-0-11">
<path d="M 1.453125 0 L 9.296875 0 L 9.296875 -1.546875 L 3.15625 -1.546875 L 3.15625 -13 L 1.453125 -13 Z M 1.453125 0 "/>
</g>
<g id="glyph-1-0">
<path d="M 4.078125 0 L 18.265625 0 L 18.265625 -16.90625 C 18.265625 -20.984375 18.1875 -25.5625 18.125 -29.15625 L 18.265625 -29.15625 C 20.40625 -25.859375 22.703125 -22.484375 25.0625 -19.203125 L 31.296875 -10.453125 L 37.453125 -19.203125 C 39.75 -22.421875 42.109375 -25.859375 44.265625 -29.15625 L 44.40625 -29.15625 C 44.328125 -25.5625 44.265625 -20.984375 44.265625 -16.90625 L 44.265625 0 L 59.015625 0 L 59.015625 -51.859375 L 44.984375 -51.859375 L 31.65625 -32.953125 L 18.265625 -51.859375 L 4.078125 -51.859375 Z M 4.078125 0 "/>
</g>
<g id="glyph-1-1">
<path d="M 4.078125 0 L 38.75 0 L 38.75 -12.46875 L 18.6875 -12.46875 L 18.6875 -20.34375 L 34.953125 -20.34375 L 34.953125 -32.09375 L 18.6875 -32.09375 L 18.6875 -39.390625 L 37.890625 -39.390625 L 37.890625 -51.859375 L 4.078125 -51.859375 Z M 4.078125 0 "/>
</g>
<g id="glyph-1-2">
<path d="M 4.078125 0 L 18.265625 0 L 18.265625 -16.609375 C 18.265625 -20.984375 18.1875 -25.421875 18.125 -29.875 L 18.265625 -29.875 C 20.84375 -26.140625 23.34375 -22.640625 26.21875 -18.765625 L 39.96875 0 L 53.796875 0 L 53.796875 -51.859375 L 39.609375 -51.859375 L 39.609375 -35.234375 C 39.609375 -30.875 39.6875 -26.421875 39.75 -21.984375 L 39.609375 -21.984375 C 37.03125 -25.71875 34.515625 -29.21875 31.65625 -33.09375 L 17.90625 -51.859375 L 4.078125 -51.859375 Z M 4.078125 0 "/>
</g>
<g id="glyph-1-3">
<path d="M 3.65625 -51.859375 L 3.65625 -22.421875 C 3.65625 -16.40625 5.296875 -10.390625 9.390625 -6.09375 C 13.46875 -1.796875 20.125 0.78125 27.640625 0.78125 C 35.171875 0.78125 41.828125 -1.796875 45.90625 -6.09375 C 50 -10.390625 51.640625 -16.265625 51.640625 -22.421875 L 51.640625 -51.859375 L 37.453125 -51.859375 L 37.453125 -23.703125 C 37.453125 -19.90625 36.671875 -17.1875 35.03125 -15.40625 C 33.375 -13.609375 31.015625 -12.46875 27.9375 -12.46875 C 24.859375 -12.46875 22.484375 -13.609375 20.84375 -15.40625 C 19.203125 -17.265625 18.40625 -19.984375 18.40625 -23.703125 L 18.40625 -51.859375 Z M 30.578125 -55.875 L 39.171875 -67.609375 L 27.71875 -67.609375 L 21.421875 -55.875 Z M 30.578125 -55.875 "/>
</g>
</g>
<mask id="mask-0">
<g filter="url(#filter-remove-color)">
<rect x="-57.6" y="-79.2" width="691.2" height="950.4" fill="rgb(0%, 0%, 0%)" fill-opacity="0.199997"/>
</g>
</mask>
<clipPath id="clip-0">
<path clip-rule="nonzero" d="M 0.964844 0.851562 L 41.558594 0.851562 L 41.558594 41.445312 L 0.964844 41.445312 Z M 0.964844 0.851562 "/>
</clipPath>
<clipPath id="clip-1">
<rect x="0" y="0" width="42" height="42"/>
</clipPath>
<g id="source-5" clip-path="url(#clip-1)">
<path fill-rule="nonzero" fill="rgb(85.882568%, 60.784912%, 0%)" fill-opacity="1" d="M 20.253906 30.945312 C 19.921875 30.945312 19.578125 30.84375 19.289062 30.625 C 18.554688 30.078125 18.394531 29.058594 18.929688 28.308594 L 27.613281 16.394531 C 28.160156 15.660156 29.183594 15.5 29.933594 16.035156 C 30.667969 16.582031 30.828125 17.605469 30.292969 18.355469 L 21.609375 30.265625 C 21.277344 30.714844 20.773438 30.945312 20.269531 30.945312 Z M 20.253906 30.945312 "/>
<path fill-rule="nonzero" fill="rgb(85.882568%, 60.784912%, 0%)" fill-opacity="1" d="M 18.941406 13.011719 L 11.105469 24 C 11.050781 24.074219 10.964844 24.117188 10.875 24.117188 C 10.789062 24.117188 10.761719 24.101562 10.71875 24.058594 C 10.589844 23.972656 10.558594 23.800781 10.660156 23.667969 L 18.496094 12.679688 C 18.582031 12.550781 18.757812 12.519531 18.886719 12.621094 C 19.015625 12.707031 19.042969 12.878906 18.941406 13.011719 M 20.773438 11.195312 C 20.039062 10.648438 19 10.820312 18.453125 11.554688 L 9.609375 23.625 C 9.0625 24.359375 9.234375 25.398438 9.96875 25.945312 C 10.257812 26.160156 10.601562 26.261719 10.949219 26.261719 C 11.453125 26.261719 11.957031 26.03125 12.289062 25.585938 L 21.132812 13.515625 C 21.679688 12.78125 21.507812 11.742188 20.773438 11.195312 "/>
<path fill-rule="nonzero" fill="rgb(85.882568%, 60.784912%, 0%)" fill-opacity="1" d="M 25.253906 13.152344 L 14.953125 27.761719 C 14.894531 27.832031 14.808594 27.875 14.722656 27.875 C 14.636719 27.875 14.605469 27.859375 14.5625 27.816406 C 14.433594 27.730469 14.40625 27.558594 14.492188 27.429688 L 24.792969 12.824219 C 24.878906 12.691406 25.050781 12.664062 25.179688 12.75 C 25.308594 12.835938 25.339844 13.011719 25.253906 13.140625 Z M 26.664062 11.640625 C 25.914062 11.125 24.878906 11.296875 24.359375 12.046875 L 13.527344 27.5 C 12.996094 28.25 13.179688 29.289062 13.929688 29.804688 C 14.21875 30.007812 14.550781 30.109375 14.882812 30.109375 C 15.398438 30.109375 15.917969 29.863281 16.234375 29.402344 L 27.066406 13.945312 C 27.601562 13.195312 27.414062 12.160156 26.664062 11.640625 "/>
<g clip-path="url(#clip-0)">
<path fill-rule="nonzero" fill="rgb(85.882568%, 60.784912%, 0%)" fill-opacity="1" d="M 21.261719 38.117188 C 11.898438 38.117188 4.292969 30.496094 4.292969 21.148438 C 4.292969 11.800781 11.914062 4.179688 21.261719 4.179688 C 30.609375 4.179688 38.230469 11.800781 38.230469 21.148438 C 38.230469 30.496094 30.609375 38.117188 21.261719 38.117188 Z M 7.851562 6.570312 C 7.910156 6.527344 13.023438 1.644531 21.261719 1.644531 C 29.5 1.644531 34.773438 6.832031 34.832031 6.875 C 34.933594 6.972656 34.933594 7.164062 34.832031 7.261719 C 34.730469 7.363281 34.703125 7.347656 34.628906 7.347656 C 34.558594 7.347656 34.484375 7.320312 34.429688 7.261719 C 34.371094 7.207031 29.257812 2.191406 21.25 2.191406 C 13.238281 2.191406 8.28125 6.917969 8.226562 6.972656 C 8.109375 7.074219 7.9375 7.074219 7.835938 6.972656 C 7.734375 6.859375 7.734375 6.6875 7.835938 6.585938 Z M 21.261719 0.851562 C 10.054688 0.851562 0.964844 9.941406 0.964844 21.148438 C 0.964844 32.355469 10.054688 41.445312 21.261719 41.445312 C 32.46875 41.445312 41.558594 32.355469 41.558594 21.148438 C 41.558594 9.941406 32.46875 0.851562 21.261719 0.851562 "/>
</g>
</g>
<mask id="mask-1">
<g filter="url(#filter-remove-color)">
<rect x="-57.6" y="-79.2" width="691.2" height="950.4" fill="rgb(0%, 0%, 0%)" fill-opacity="0.199997"/>
</g>
</mask>
<clipPath id="clip-2">
<path clip-rule="nonzero" d="M 0.867188 0.851562 L 41.460938 0.851562 L 41.460938 41.445312 L 0.867188 41.445312 Z M 0.867188 0.851562 "/>
</clipPath>
<clipPath id="clip-3">
<rect x="0" y="0" width="42" height="42"/>
</clipPath>
<g id="source-8" clip-path="url(#clip-3)">
<path fill-rule="nonzero" fill="rgb(85.882568%, 60.784912%, 0%)" fill-opacity="1" d="M 20.15625 30.945312 C 19.824219 30.945312 19.476562 30.84375 19.1875 30.625 C 18.453125 30.078125 18.296875 29.058594 18.828125 28.308594 L 27.515625 16.394531 C 28.0625 15.660156 29.085938 15.5 29.835938 16.035156 C 30.570312 16.582031 30.726562 17.605469 30.195312 18.355469 L 21.507812 30.265625 C 21.175781 30.714844 20.671875 30.945312 20.167969 30.945312 Z M 20.15625 30.945312 "/>
<path fill-rule="nonzero" fill="rgb(85.882568%, 60.784912%, 0%)" fill-opacity="1" d="M 18.84375 13.011719 L 11.007812 24 C 10.949219 24.074219 10.863281 24.117188 10.777344 24.117188 C 10.691406 24.117188 10.660156 24.101562 10.617188 24.058594 C 10.488281 23.972656 10.460938 23.800781 10.5625 23.667969 L 18.398438 12.679688 C 18.484375 12.550781 18.65625 12.519531 18.785156 12.621094 C 18.914062 12.707031 18.945312 12.878906 18.84375 13.011719 M 20.671875 11.195312 C 19.9375 10.648438 18.902344 10.820312 18.355469 11.554688 L 9.507812 23.625 C 8.960938 24.359375 9.132812 25.398438 9.871094 25.945312 C 10.15625 26.160156 10.503906 26.261719 10.847656 26.261719 C 11.355469 26.261719 11.859375 26.03125 12.1875 25.585938 L 21.03125 13.515625 C 21.582031 12.78125 21.40625 11.742188 20.671875 11.195312 "/>
<path fill-rule="nonzero" fill="rgb(85.882568%, 60.784912%, 0%)" fill-opacity="1" d="M 25.152344 13.152344 L 14.855469 27.761719 C 14.796875 27.832031 14.710938 27.875 14.621094 27.875 C 14.535156 27.875 14.507812 27.859375 14.464844 27.816406 C 14.335938 27.730469 14.304688 27.558594 14.394531 27.429688 L 24.691406 12.824219 C 24.777344 12.691406 24.949219 12.664062 25.082031 12.75 C 25.210938 12.835938 25.238281 13.011719 25.152344 13.140625 Z M 26.566406 11.640625 C 25.816406 11.125 24.777344 11.296875 24.261719 12.046875 L 13.429688 27.5 C 12.894531 28.25 13.082031 29.289062 13.832031 29.804688 C 14.117188 30.007812 14.449219 30.109375 14.78125 30.109375 C 15.300781 30.109375 15.820312 29.863281 16.136719 29.402344 L 26.96875 13.945312 C 27.5 13.195312 27.3125 12.160156 26.566406 11.640625 "/>
<g clip-path="url(#clip-2)">
<path fill-rule="nonzero" fill="rgb(85.882568%, 60.784912%, 0%)" fill-opacity="1" d="M 21.164062 38.117188 C 11.800781 38.117188 4.195312 30.496094 4.195312 21.148438 C 4.195312 11.800781 11.8125 4.179688 21.164062 4.179688 C 30.511719 4.179688 38.132812 11.800781 38.132812 21.148438 C 38.132812 30.496094 30.511719 38.117188 21.164062 38.117188 M 7.75 6.570312 C 7.808594 6.527344 12.921875 1.644531 21.164062 1.644531 C 29.402344 1.644531 34.671875 6.832031 34.730469 6.875 C 34.832031 6.972656 34.832031 7.164062 34.730469 7.261719 C 34.628906 7.363281 34.601562 7.347656 34.53125 7.347656 C 34.457031 7.347656 34.386719 7.320312 34.328125 7.261719 C 34.269531 7.207031 29.15625 2.191406 21.148438 2.191406 C 13.140625 2.191406 8.183594 6.917969 8.125 6.972656 C 8.011719 7.074219 7.839844 7.074219 7.738281 6.972656 C 7.636719 6.859375 7.636719 6.6875 7.738281 6.585938 Z M 21.164062 0.851562 C 9.957031 0.851562 0.867188 9.941406 0.867188 21.148438 C 0.867188 32.355469 9.957031 41.445312 21.164062 41.445312 C 32.371094 41.445312 41.457031 32.355469 41.457031 21.148438 C 41.457031 9.941406 32.371094 0.851562 21.164062 0.851562 "/>
</g>
</g>
<mask id="mask-2">
<g filter="url(#filter-remove-color)">
<rect x="-57.6" y="-79.2" width="691.2" height="950.4" fill="rgb(0%, 0%, 0%)" fill-opacity="0.199997"/>
</g>
</mask>
<clipPath id="clip-4">
<path clip-rule="nonzero" d="M 0.765625 0.851562 L 41.359375 0.851562 L 41.359375 41.445312 L 0.765625 41.445312 Z M 0.765625 0.851562 "/>
</clipPath>
<clipPath id="clip-5">
<rect x="0" y="0" width="42" height="42"/>
</clipPath>
<g id="source-11" clip-path="url(#clip-5)">
<path fill-rule="nonzero" fill="rgb(85.882568%, 60.784912%, 0%)" fill-opacity="1" d="M 20.054688 30.945312 C 19.722656 30.945312 19.378906 30.84375 19.089844 30.625 C 18.355469 30.078125 18.195312 29.058594 18.730469 28.308594 L 27.414062 16.394531 C 27.964844 15.660156 28.984375 15.5 29.734375 16.035156 C 30.46875 16.582031 30.628906 17.605469 30.09375 18.355469 L 21.410156 30.265625 C 21.078125 30.714844 20.574219 30.945312 20.070312 30.945312 Z M 20.054688 30.945312 "/>
<path fill-rule="nonzero" fill="rgb(85.882568%, 60.784912%, 0%)" fill-opacity="1" d="M 18.746094 13.011719 L 10.90625 24 C 10.851562 24.074219 10.765625 24.117188 10.675781 24.117188 C 10.589844 24.117188 10.5625 24.101562 10.519531 24.058594 C 10.390625 23.972656 10.359375 23.800781 10.460938 23.667969 L 18.296875 12.679688 C 18.382812 12.550781 18.558594 12.519531 18.6875 12.621094 C 18.816406 12.707031 18.84375 12.878906 18.746094 13.011719 M 20.574219 11.195312 C 19.839844 10.648438 18.800781 10.820312 18.253906 11.554688 L 9.410156 23.625 C 8.863281 24.359375 9.035156 25.398438 9.769531 25.945312 C 10.058594 26.160156 10.402344 26.261719 10.75 26.261719 C 11.253906 26.261719 11.757812 26.03125 12.089844 25.585938 L 20.933594 13.515625 C 21.480469 12.78125 21.308594 11.742188 20.574219 11.195312 "/>
<path fill-rule="nonzero" fill="rgb(85.882568%, 60.784912%, 0%)" fill-opacity="1" d="M 25.054688 13.152344 L 14.753906 27.761719 C 14.695312 27.832031 14.609375 27.875 14.523438 27.875 C 14.4375 27.875 14.410156 27.859375 14.367188 27.816406 C 14.234375 27.730469 14.207031 27.558594 14.292969 27.429688 L 24.59375 12.824219 C 24.679688 12.691406 24.851562 12.664062 24.980469 12.75 C 25.109375 12.835938 25.140625 13.011719 25.054688 13.140625 Z M 26.464844 11.640625 C 25.714844 11.125 24.679688 11.296875 24.160156 12.046875 L 13.328125 27.5 C 12.796875 28.25 12.980469 29.289062 13.730469 29.804688 C 14.019531 30.007812 14.351562 30.109375 14.683594 30.109375 C 15.199219 30.109375 15.71875 29.863281 16.035156 29.402344 L 26.867188 13.945312 C 27.402344 13.195312 27.214844 12.160156 26.464844 11.640625 "/>
<g clip-path="url(#clip-4)">
<path fill-rule="nonzero" fill="rgb(85.882568%, 60.784912%, 0%)" fill-opacity="1" d="M 21.0625 38.117188 C 11.699219 38.117188 4.09375 30.496094 4.09375 21.148438 C 4.09375 11.800781 11.714844 4.179688 21.0625 4.179688 C 30.414062 4.179688 38.03125 11.800781 38.03125 21.148438 C 38.03125 30.496094 30.414062 38.117188 21.0625 38.117188 M 7.652344 6.570312 C 7.710938 6.527344 12.824219 1.644531 21.0625 1.644531 C 29.300781 1.644531 34.574219 6.832031 34.632812 6.875 C 34.734375 6.972656 34.734375 7.164062 34.632812 7.261719 C 34.53125 7.363281 34.503906 7.347656 34.429688 7.347656 C 34.359375 7.347656 34.285156 7.320312 34.230469 7.261719 C 34.171875 7.207031 29.058594 2.191406 21.050781 2.191406 C 13.039062 2.191406 8.085938 6.917969 8.027344 6.972656 C 7.914062 7.074219 7.738281 7.074219 7.636719 6.972656 C 7.539062 6.859375 7.539062 6.6875 7.636719 6.585938 Z M 21.0625 0.851562 C 9.855469 0.851562 0.765625 9.941406 0.765625 21.148438 C 0.765625 32.355469 9.855469 41.445312 21.0625 41.445312 C 32.269531 41.445312 41.359375 32.355469 41.359375 21.148438 C 41.359375 9.941406 32.269531 0.851562 21.0625 0.851562 "/>
</g>
</g>
<mask id="mask-3">
<g filter="url(#filter-remove-color)">
<rect x="-57.6" y="-79.2" width="691.2" height="950.4" fill="rgb(0%, 0%, 0%)" fill-opacity="0.199997"/>
</g>
</mask>
<clipPath id="clip-6">
<path clip-rule="nonzero" d="M 0.667969 0.851562 L 41.261719 0.851562 L 41.261719 41.445312 L 0.667969 41.445312 Z M 0.667969 0.851562 "/>
</clipPath>
<clipPath id="clip-7">
<rect x="0" y="0" width="42" height="42"/>
</clipPath>
<g id="source-14" clip-path="url(#clip-7)">
<path fill-rule="nonzero" fill="rgb(85.882568%, 60.784912%, 0%)" fill-opacity="1" d="M 19.957031 30.945312 C 19.625 30.945312 19.277344 30.84375 18.992188 30.625 C 18.253906 30.078125 18.097656 29.058594 18.628906 28.308594 L 27.316406 16.394531 C 27.863281 15.660156 28.886719 15.5 29.636719 16.035156 C 30.371094 16.582031 30.527344 17.605469 29.996094 18.355469 L 21.308594 30.265625 C 20.976562 30.714844 20.472656 30.945312 19.96875 30.945312 Z M 19.957031 30.945312 "/>
<path fill-rule="nonzero" fill="rgb(85.882568%, 60.784912%, 0%)" fill-opacity="1" d="M 18.644531 13.011719 L 10.808594 24 C 10.75 24.074219 10.664062 24.117188 10.578125 24.117188 C 10.492188 24.117188 10.460938 24.101562 10.417969 24.058594 C 10.289062 23.972656 10.261719 23.800781 10.363281 23.667969 L 18.199219 12.679688 C 18.285156 12.550781 18.457031 12.519531 18.585938 12.621094 C 18.714844 12.707031 18.746094 12.878906 18.644531 13.011719 M 20.472656 11.195312 C 19.738281 10.648438 18.703125 10.820312 18.15625 11.554688 L 9.3125 23.625 C 8.761719 24.359375 8.9375 25.398438 9.671875 25.945312 C 9.957031 26.160156 10.304688 26.261719 10.648438 26.261719 C 11.15625 26.261719 11.660156 26.03125 11.988281 25.585938 L 20.835938 13.515625 C 21.382812 12.78125 21.207031 11.742188 20.472656 11.195312 "/>
<path fill-rule="nonzero" fill="rgb(85.882568%, 60.784912%, 0%)" fill-opacity="1" d="M 24.953125 13.152344 L 14.65625 27.761719 C 14.597656 27.832031 14.511719 27.875 14.425781 27.875 C 14.339844 27.875 14.308594 27.859375 14.265625 27.816406 C 14.136719 27.730469 14.105469 27.558594 14.195312 27.429688 L 24.492188 12.824219 C 24.578125 12.691406 24.75 12.664062 24.882812 12.75 C 25.011719 12.835938 25.039062 13.011719 24.953125 13.140625 Z M 26.367188 11.640625 C 25.617188 11.125 24.578125 11.296875 24.0625 12.046875 L 13.230469 27.5 C 12.695312 28.25 12.882812 29.289062 13.632812 29.804688 C 13.917969 30.007812 14.25 30.109375 14.582031 30.109375 C 15.101562 30.109375 15.621094 29.863281 15.9375 29.402344 L 26.769531 13.945312 C 27.300781 13.195312 27.113281 12.160156 26.367188 11.640625 "/>
<g clip-path="url(#clip-6)">
<path fill-rule="nonzero" fill="rgb(85.882568%, 60.784912%, 0%)" fill-opacity="1" d="M 20.964844 38.117188 C 11.601562 38.117188 3.996094 30.496094 3.996094 21.148438 C 3.996094 11.800781 11.613281 4.179688 20.964844 4.179688 C 30.3125 4.179688 37.933594 11.800781 37.933594 21.148438 C 37.933594 30.496094 30.3125 38.117188 20.964844 38.117188 M 7.554688 6.570312 C 7.609375 6.527344 12.726562 1.644531 20.964844 1.644531 C 29.203125 1.644531 34.476562 6.832031 34.53125 6.875 C 34.632812 6.972656 34.632812 7.164062 34.53125 7.261719 C 34.433594 7.363281 34.402344 7.347656 34.332031 7.347656 C 34.257812 7.347656 34.1875 7.320312 34.128906 7.261719 C 34.070312 7.207031 28.957031 2.191406 20.949219 2.191406 C 12.941406 2.191406 7.984375 6.917969 7.929688 6.972656 C 7.8125 7.074219 7.640625 7.074219 7.539062 6.972656 C 7.4375 6.859375 7.4375 6.6875 7.539062 6.585938 Z M 20.964844 0.851562 C 9.757812 0.851562 0.667969 9.941406 0.667969 21.148438 C 0.667969 32.355469 9.757812 41.445312 20.964844 41.445312 C 32.171875 41.445312 41.261719 32.355469 41.261719 21.148438 C 41.261719 9.941406 32.171875 0.851562 20.964844 0.851562 "/>
</g>
</g>
<mask id="mask-4">
<g filter="url(#filter-remove-color)">
<rect x="-57.6" y="-79.2" width="691.2" height="950.4" fill="rgb(0%, 0%, 0%)" fill-opacity="0.199997"/>
</g>
</mask>
<clipPath id="clip-8">
<path clip-rule="nonzero" d="M 0.566406 0.851562 L 41.160156 0.851562 L 41.160156 41.445312 L 0.566406 41.445312 Z M 0.566406 0.851562 "/>
</clipPath>
<clipPath id="clip-9">
<rect x="0" y="0" width="42" height="42"/>
</clipPath>
<g id="source-17" clip-path="url(#clip-9)">
<path fill-rule="nonzero" fill="rgb(85.882568%, 60.784912%, 0%)" fill-opacity="1" d="M 19.855469 30.945312 C 19.523438 30.945312 19.179688 30.84375 18.890625 30.625 C 18.15625 30.078125 18 29.058594 18.53125 28.308594 L 27.21875 16.394531 C 27.765625 15.660156 28.785156 15.5 29.535156 16.035156 C 30.269531 16.582031 30.429688 17.605469 29.894531 18.355469 L 21.210938 30.265625 C 20.878906 30.714844 20.375 30.945312 19.871094 30.945312 Z M 19.855469 30.945312 "/>
<path fill-rule="nonzero" fill="rgb(85.882568%, 60.784912%, 0%)" fill-opacity="1" d="M 18.546875 13.011719 L 10.710938 24 C 10.652344 24.074219 10.566406 24.117188 10.476562 24.117188 C 10.390625 24.117188 10.363281 24.101562 10.320312 24.058594 C 10.191406 23.972656 10.164062 23.800781 10.261719 23.667969 L 18.097656 12.679688 C 18.183594 12.550781 18.359375 12.519531 18.488281 12.621094 C 18.617188 12.707031 18.644531 12.878906 18.546875 13.011719 M 20.375 11.195312 C 19.640625 10.648438 18.601562 10.820312 18.054688 11.554688 L 9.210938 23.625 C 8.664062 24.359375 8.835938 25.398438 9.570312 25.945312 C 9.859375 26.160156 10.207031 26.261719 10.550781 26.261719 C 11.054688 26.261719 11.558594 26.03125 11.890625 25.585938 L 20.734375 13.515625 C 21.28125 12.78125 21.109375 11.742188 20.375 11.195312 "/>
<path fill-rule="nonzero" fill="rgb(85.882568%, 60.784912%, 0%)" fill-opacity="1" d="M 24.855469 13.152344 L 14.554688 27.761719 C 14.496094 27.832031 14.410156 27.875 14.324219 27.875 C 14.238281 27.875 14.210938 27.859375 14.167969 27.816406 C 14.035156 27.730469 14.007812 27.558594 14.09375 27.429688 L 24.394531 12.824219 C 24.480469 12.691406 24.652344 12.664062 24.78125 12.75 C 24.914062 12.835938 24.941406 13.011719 24.855469 13.140625 Z M 26.265625 11.640625 C 25.515625 11.125 24.480469 11.296875 23.960938 12.046875 L 13.128906 27.5 C 12.597656 28.25 12.785156 29.289062 13.53125 29.804688 C 13.820312 30.007812 14.152344 30.109375 14.484375 30.109375 C 15 30.109375 15.519531 29.863281 15.835938 29.402344 L 26.667969 13.945312 C 27.203125 13.195312 27.015625 12.160156 26.265625 11.640625 "/>
<g clip-path="url(#clip-8)">
<path fill-rule="nonzero" fill="rgb(85.882568%, 60.784912%, 0%)" fill-opacity="1" d="M 20.863281 38.117188 C 11.5 38.117188 3.894531 30.496094 3.894531 21.148438 C 3.894531 11.800781 11.515625 4.179688 20.863281 4.179688 C 30.214844 4.179688 37.832031 11.800781 37.832031 21.148438 C 37.832031 30.496094 30.214844 38.117188 20.863281 38.117188 M 7.453125 6.570312 C 7.511719 6.527344 12.625 1.644531 20.863281 1.644531 C 29.101562 1.644531 34.375 6.832031 34.433594 6.875 C 34.535156 6.972656 34.535156 7.164062 34.433594 7.261719 C 34.332031 7.363281 34.304688 7.347656 34.230469 7.347656 C 34.160156 7.347656 34.085938 7.320312 34.03125 7.261719 C 33.972656 7.207031 28.859375 2.191406 20.851562 2.191406 C 12.839844 2.191406 7.886719 6.917969 7.828125 6.972656 C 7.714844 7.074219 7.539062 7.074219 7.4375 6.972656 C 7.339844 6.859375 7.339844 6.6875 7.4375 6.585938 Z M 20.863281 0.851562 C 9.65625 0.851562 0.570312 9.941406 0.570312 21.148438 C 0.570312 32.355469 9.65625 41.445312 20.863281 41.445312 C 32.070312 41.445312 41.160156 32.355469 41.160156 21.148438 C 41.160156 9.941406 32.070312 0.851562 20.863281 0.851562 "/>
</g>
</g>
<mask id="mask-5">
<g filter="url(#filter-remove-color)">
<rect x="-57.6" y="-79.2" width="691.2" height="950.4" fill="rgb(0%, 0%, 0%)" fill-opacity="0.199997"/>
</g>
</mask>
<clipPath id="clip-10">
<path clip-rule="nonzero" d="M 0.46875 0.851562 L 41.0625 0.851562 L 41.0625 41.445312 L 0.46875 41.445312 Z M 0.46875 0.851562 "/>
</clipPath>
<clipPath id="clip-11">
<rect x="0" y="0" width="42" height="42"/>
</clipPath>
<g id="source-20" clip-path="url(#clip-11)">
<path fill-rule="nonzero" fill="rgb(85.882568%, 60.784912%, 0%)" fill-opacity="1" d="M 19.757812 30.945312 C 19.425781 30.945312 19.078125 30.84375 18.792969 30.625 C 18.058594 30.078125 17.898438 29.058594 18.433594 28.308594 L 27.117188 16.394531 C 27.664062 15.660156 28.6875 15.5 29.4375 16.035156 C 30.171875 16.582031 30.328125 17.605469 29.796875 18.355469 L 21.109375 30.265625 C 20.78125 30.714844 20.277344 30.945312 19.769531 30.945312 Z M 19.757812 30.945312 "/>
<path fill-rule="nonzero" fill="rgb(85.882568%, 60.784912%, 0%)" fill-opacity="1" d="M 18.445312 13.011719 L 10.609375 24 C 10.550781 24.074219 10.464844 24.117188 10.378906 24.117188 C 10.292969 24.117188 10.265625 24.101562 10.222656 24.058594 C 10.089844 23.972656 10.0625 23.800781 10.164062 23.667969 L 18 12.679688 C 18.085938 12.550781 18.257812 12.519531 18.386719 12.621094 C 18.519531 12.707031 18.546875 12.878906 18.445312 13.011719 M 20.273438 11.195312 C 19.539062 10.648438 18.503906 10.820312 17.957031 11.554688 L 9.113281 23.625 C 8.5625 24.359375 8.738281 25.398438 9.472656 25.945312 C 9.761719 26.160156 10.105469 26.261719 10.449219 26.261719 C 10.957031 26.261719 11.460938 26.03125 11.789062 25.585938 L 20.636719 13.515625 C 21.183594 12.78125 21.011719 11.742188 20.273438 11.195312 "/>
<path fill-rule="nonzero" fill="rgb(85.882568%, 60.784912%, 0%)" fill-opacity="1" d="M 24.753906 13.152344 L 14.457031 27.761719 C 14.398438 27.832031 14.3125 27.875 14.226562 27.875 C 14.140625 27.875 14.109375 27.859375 14.066406 27.816406 C 13.9375 27.730469 13.90625 27.558594 13.996094 27.429688 L 24.292969 12.824219 C 24.378906 12.691406 24.554688 12.664062 24.683594 12.75 C 24.8125 12.835938 24.839844 13.011719 24.753906 13.140625 Z M 26.167969 11.640625 C 25.417969 11.125 24.378906 11.296875 23.863281 12.046875 L 13.03125 27.5 C 12.496094 28.25 12.683594 29.289062 13.433594 29.804688 C 13.722656 30.007812 14.050781 30.109375 14.382812 30.109375 C 14.902344 30.109375 15.421875 29.863281 15.738281 29.402344 L 26.570312 13.945312 C 27.101562 13.195312 26.914062 12.160156 26.167969 11.640625 "/>
<g clip-path="url(#clip-10)">
<path fill-rule="nonzero" fill="rgb(85.882568%, 60.784912%, 0%)" fill-opacity="1" d="M 20.765625 38.117188 C 11.402344 38.117188 3.796875 30.496094 3.796875 21.148438 C 3.796875 11.800781 11.414062 4.179688 20.765625 4.179688 C 30.113281 4.179688 37.734375 11.800781 37.734375 21.148438 C 37.734375 30.496094 30.113281 38.117188 20.765625 38.117188 M 7.355469 6.570312 C 7.410156 6.527344 12.527344 1.644531 20.765625 1.644531 C 29.003906 1.644531 34.277344 6.832031 34.335938 6.875 C 34.433594 6.972656 34.433594 7.164062 34.335938 7.261719 C 34.234375 7.363281 34.203125 7.347656 34.132812 7.347656 C 34.058594 7.347656 33.988281 7.320312 33.929688 7.261719 C 33.871094 7.207031 28.761719 2.191406 20.75 2.191406 C 12.742188 2.191406 7.785156 6.917969 7.730469 6.972656 C 7.613281 7.074219 7.441406 7.074219 7.339844 6.972656 C 7.238281 6.859375 7.238281 6.6875 7.339844 6.585938 Z M 20.765625 0.851562 C 9.558594 0.851562 0.46875 9.941406 0.46875 21.148438 C 0.46875 32.355469 9.558594 41.445312 20.765625 41.445312 C 31.972656 41.445312 41.0625 32.355469 41.0625 21.148438 C 41.0625 9.941406 31.972656 0.851562 20.765625 0.851562 "/>
</g>
</g>
<mask id="mask-6">
<g filter="url(#filter-remove-color)">
<rect x="-57.6" y="-79.2" width="691.2" height="950.4" fill="rgb(0%, 0%, 0%)" fill-opacity="0.199997"/>
</g>
</mask>
<clipPath id="clip-12">
<path clip-rule="nonzero" d="M 0.371094 0.851562 L 40.960938 0.851562 L 40.960938 41.445312 L 0.371094 41.445312 Z M 0.371094 0.851562 "/>
</clipPath>
<clipPath id="clip-13">
<rect x="0" y="0" width="41" height="42"/>
</clipPath>
<g id="source-23" clip-path="url(#clip-13)">
<path fill-rule="nonzero" fill="rgb(85.882568%, 60.784912%, 0%)" fill-opacity="1" d="M 19.65625 30.945312 C 19.328125 30.945312 18.980469 30.84375 18.691406 30.625 C 17.957031 30.078125 17.800781 29.058594 18.332031 28.308594 L 27.019531 16.394531 C 27.566406 15.660156 28.589844 15.5 29.335938 16.035156 C 30.070312 16.582031 30.230469 17.605469 29.695312 18.355469 L 21.011719 30.265625 C 20.679688 30.714844 20.175781 30.945312 19.671875 30.945312 Z M 19.65625 30.945312 "/>
<path fill-rule="nonzero" fill="rgb(85.882568%, 60.784912%, 0%)" fill-opacity="1" d="M 18.347656 13.011719 L 10.511719 24 C 10.453125 24.074219 10.367188 24.117188 10.28125 24.117188 C 10.195312 24.117188 10.164062 24.101562 10.121094 24.058594 C 9.992188 23.972656 9.964844 23.800781 10.0625 23.667969 L 17.898438 12.679688 C 17.988281 12.550781 18.160156 12.519531 18.289062 12.621094 C 18.417969 12.707031 18.449219 12.878906 18.347656 13.011719 M 20.175781 11.195312 C 19.441406 10.648438 18.40625 10.820312 17.855469 11.554688 L 9.011719 23.625 C 8.464844 24.359375 8.636719 25.398438 9.371094 25.945312 C 9.660156 26.160156 10.007812 26.261719 10.351562 26.261719 C 10.855469 26.261719 11.359375 26.03125 11.691406 25.585938 L 20.535156 13.515625 C 21.082031 12.78125 20.910156 11.742188 20.175781 11.195312 "/>
<path fill-rule="nonzero" fill="rgb(85.882568%, 60.784912%, 0%)" fill-opacity="1" d="M 24.65625 13.152344 L 14.355469 27.761719 C 14.296875 27.832031 14.210938 27.875 14.125 27.875 C 14.039062 27.875 14.011719 27.859375 13.96875 27.816406 C 13.835938 27.730469 13.808594 27.558594 13.894531 27.429688 L 24.195312 12.824219 C 24.28125 12.691406 24.453125 12.664062 24.582031 12.75 C 24.714844 12.835938 24.742188 13.011719 24.65625 13.140625 Z M 26.066406 11.640625 C 25.320312 11.125 24.28125 11.296875 23.761719 12.046875 L 12.929688 27.5 C 12.398438 28.25 12.585938 29.289062 13.332031 29.804688 C 13.621094 30.007812 13.953125 30.109375 14.285156 30.109375 C 14.800781 30.109375 15.320312 29.863281 15.636719 29.402344 L 26.46875 13.945312 C 27.003906 13.195312 26.816406 12.160156 26.066406 11.640625 "/>
<g clip-path="url(#clip-12)">
<path fill-rule="nonzero" fill="rgb(85.882568%, 60.784912%, 0%)" fill-opacity="1" d="M 20.664062 38.117188 C 11.300781 38.117188 3.695312 30.496094 3.695312 21.148438 C 3.695312 11.800781 11.316406 4.179688 20.664062 4.179688 C 30.015625 4.179688 37.632812 11.800781 37.632812 21.148438 C 37.632812 30.496094 30.015625 38.117188 20.664062 38.117188 M 7.253906 6.570312 C 7.3125 6.527344 12.425781 1.644531 20.664062 1.644531 C 28.90625 1.644531 34.175781 6.832031 34.234375 6.875 C 34.335938 6.972656 34.335938 7.164062 34.234375 7.261719 C 34.132812 7.363281 34.105469 7.347656 34.03125 7.347656 C 33.960938 7.347656 33.886719 7.320312 33.832031 7.261719 C 33.773438 7.207031 28.660156 2.191406 20.652344 2.191406 C 12.640625 2.191406 7.6875 6.917969 7.628906 6.972656 C 7.515625 7.074219 7.339844 7.074219 7.242188 6.972656 C 7.140625 6.859375 7.140625 6.6875 7.242188 6.585938 Z M 20.664062 0.851562 C 9.457031 0.851562 0.371094 9.941406 0.371094 21.148438 C 0.371094 32.355469 9.457031 41.445312 20.664062 41.445312 C 31.871094 41.445312 40.960938 32.355469 40.960938 21.148438 C 40.960938 9.941406 31.871094 0.851562 20.664062 0.851562 "/>
</g>
</g>
</defs>
<rect x="-57.6" y="-79.2" width="691.2" height="950.4" fill="rgb(11.372375%, 11.372375%, 10.588074%)" fill-opacity="1"/>
<g mask="url(#mask-0)">
<use xlink:href="#source-5" transform="matrix(1, 0, 0, 1, 11, 733)"/>
</g>
<g mask="url(#mask-1)">
<use xlink:href="#source-8" transform="matrix(1, 0, 0, 1, 96, 733)"/>
</g>
<g mask="url(#mask-2)">
<use xlink:href="#source-11" transform="matrix(1, 0, 0, 1, 181, 733)"/>
</g>
<g mask="url(#mask-3)">
<use xlink:href="#source-14" transform="matrix(1, 0, 0, 1, 266, 733)"/>
</g>
<g mask="url(#mask-4)">
<use xlink:href="#source-17" transform="matrix(1, 0, 0, 1, 351, 733)"/>
</g>
<g mask="url(#mask-5)">
<use xlink:href="#source-20" transform="matrix(1, 0, 0, 1, 436, 733)"/>
</g>
<g mask="url(#mask-6)">
<use xlink:href="#source-23" transform="matrix(1, 0, 0, 1, 521, 733)"/>
</g>
<g fill="rgb(100%, 100%, 100%)" fill-opacity="1">
<use xlink:href="#glyph-0-0" x="189.6279" y="705.4687"/>
</g>
<g fill="rgb(100%, 100%, 100%)" fill-opacity="1">
<use xlink:href="#glyph-0-1" x="201.531402" y="705.4687"/>
<use xlink:href="#glyph-0-2" x="216.181866" y="705.4687"/>
<use xlink:href="#glyph-0-3" x="231.604352" y="705.4687"/>
<use xlink:href="#glyph-0-4" x="236.21853" y="705.4687"/>
</g>
<g fill="rgb(100%, 100%, 100%)" fill-opacity="1">
<use xlink:href="#glyph-0-5" x="248.964075" y="705.4687"/>
<use xlink:href="#glyph-0-6" x="261.495967" y="705.4687"/>
<use xlink:href="#glyph-0-7" x="265.302215" y="705.4687"/>
<use xlink:href="#glyph-0-8" x="277.223671" y="705.4687"/>
<use xlink:href="#glyph-0-9" x="287.116325" y="705.4687"/>
<use xlink:href="#glyph-0-8" x="300.976813" y="705.4687"/>
<use xlink:href="#glyph-0-10" x="310.869467" y="705.4687"/>
</g>
<g fill="rgb(100%, 100%, 100%)" fill-opacity="1">
<use xlink:href="#glyph-0-1" x="322.072763" y="705.4687"/>
<use xlink:href="#glyph-0-11" x="336.723227" y="705.4687"/>
<use xlink:href="#glyph-0-5" x="346.544065" y="705.4687"/>
<use xlink:href="#glyph-0-9" x="359.075957" y="705.4687"/>
<use xlink:href="#glyph-0-5" x="372.936445" y="705.4687"/>
</g>
<path fill-rule="nonzero" fill="rgb(91.764832%, 63.529968%, 0%)" fill-opacity="1" d="M 105 168.285156 C 100.945312 168.285156 97.582031 167.121094 94.953125 164.578125 C 91.980469 161.6875 90.425781 157.808594 90.425781 153.28125 C 90.425781 148.753906 92.238281 144.65625 95.472656 141.855469 C 98.101562 139.613281 101.378906 138.902344 105.34375 138.902344 C 109.921875 138.902344 111.308594 140.878906 113.035156 140.878906 C 114.164062 140.878906 114.527344 139.34375 114.785156 138.914062 L 115.734375 139 C 115.648438 139.945312 115.605469 141.898438 115.605469 142.757812 L 115.605469 147.265625 L 114.699219 147.351562 C 114.699219 142.542969 109.972656 139.996094 105.863281 139.996094 C 99.265625 139.996094 95.472656 144.398438 95.472656 153.148438 C 95.472656 162.121094 99.523438 167.164062 105.734375 167.164062 C 109.285156 167.164062 113.964844 164.945312 115.34375 159.082031 L 116.25 159.339844 C 115.6875 162.011719 113.171875 168.285156 105 168.285156 "/>
<path fill-rule="nonzero" fill="rgb(91.764832%, 63.529968%, 0%)" fill-opacity="1" d="M 347.433594 179 C 344.378906 185.824219 340.070312 192.105469 334.625 197.554688 C 322.894531 209.28125 307.300781 215.742188 290.714844 215.742188 C 274.128906 215.742188 258.535156 209.28125 246.804688 197.554688 C 241.359375 192.105469 237.050781 185.824219 233.996094 179 L 231.648438 179 C 241.484375 201.882812 264.226562 217.910156 290.714844 217.910156 C 317.203125 217.910156 339.945312 201.882812 349.78125 179 Z M 347.433594 179 "/>
<path fill-rule="nonzero" fill="rgb(91.764832%, 63.529968%, 0%)" fill-opacity="1" d="M 234.039062 128.199219 C 237.09375 121.40625 241.386719 115.160156 246.808594 109.738281 C 258.535156 98.007812 274.128906 91.550781 290.714844 91.550781 C 307.300781 91.550781 322.894531 98.007812 334.621094 109.738281 C 340.042969 115.160156 344.339844 121.40625 347.390625 128.199219 L 349.738281 128.199219 C 339.882812 105.363281 317.167969 89.378906 290.714844 89.378906 C 264.261719 89.378906 241.546875 105.363281 231.6875 128.199219 Z M 234.039062 128.199219 "/>
<path fill-rule="nonzero" fill="rgb(91.764832%, 63.529968%, 0%)" fill-opacity="1" d="M 228.308594 125.875 C 231.71875 118.21875 236.460938 111.320312 242.425781 105.355469 C 248.699219 99.085938 256 94.160156 264.132812 90.71875 C 272.550781 87.160156 281.496094 85.355469 290.714844 85.355469 C 299.933594 85.355469 308.878906 87.160156 317.296875 90.71875 C 325.429688 94.160156 332.730469 99.085938 339.003906 105.355469 C 344.96875 111.320312 349.710938 118.21875 353.121094 125.875 L 355.488281 125.875 C 344.710938 100.769531 319.765625 83.183594 290.714844 83.183594 C 261.664062 83.183594 236.71875 100.769531 225.941406 125.875 Z M 228.308594 125.875 "/>
<path fill-rule="nonzero" fill="rgb(91.764832%, 63.529968%, 0%)" fill-opacity="1" d="M 352.902344 181.902344 C 349.511719 189.363281 344.84375 196.097656 339.003906 201.933594 C 332.730469 208.207031 325.429688 213.132812 317.296875 216.570312 C 308.878906 220.128906 299.933594 221.9375 290.714844 221.9375 C 281.496094 221.9375 272.550781 220.128906 264.132812 216.570312 C 256 213.132812 248.699219 208.207031 242.425781 201.933594 C 236.589844 196.097656 231.917969 189.363281 228.527344 181.902344 L 226.15625 181.902344 C 237.046875 206.746094 261.851562 224.105469 290.714844 224.105469 C 319.578125 224.105469 344.382812 206.746094 355.273438 181.902344 Z M 352.902344 181.902344 "/>
<path fill-rule="nonzero" fill="rgb(91.764832%, 63.529968%, 0%)" fill-opacity="1" d="M 120.660156 166.6875 L 123.050781 166.472656 C 123.695312 166.429688 124.015625 166.300781 124.097656 166 C 124.257812 165.394531 124.257812 161.214844 124.257812 153.367188 C 124.257812 145.648438 124.179688 142.347656 124.179688 142 C 124.179688 140.644531 121.742188 140.792969 121.742188 140.792969 L 121.742188 139.714844 C 123.632812 139.886719 124.5 140.015625 126.390625 140.015625 C 128.320312 140.015625 129.777344 139.886719 131.789062 139.714844 L 131.789062 140.792969 L 129.644531 141.007812 C 128.722656 141.09375 128.601562 141.265625 128.558594 142 C 128.519531 142.644531 128.441406 146.386719 128.441406 153.070312 L 141.023438 153.070312 L 141.023438 148.105469 C 141.023438 143.621094 140.945312 142.007812 140.863281 141.523438 C 140.707031 140.605469 137.675781 140.792969 137.675781 140.792969 L 137.675781 139.714844 C 139.683594 139.886719 141.144531 139.875 143.113281 139.875 C 145.082031 139.875 146.382812 139.886719 148.351562 139.714844 L 148.351562 140.792969 C 148.351562 140.792969 145.140625 140.742188 145.203125 141.523438 C 145.042969 142.128906 145.003906 145.519531 145.003906 153.367188 C 145.003906 161.085938 145.082031 165.136719 145.125 165.480469 C 145.164062 166.214844 145.285156 166.386719 146.210938 166.472656 L 148.863281 166.6875 L 148.863281 167.851562 C 146.894531 167.636719 145.082031 167.550781 143.113281 167.550781 C 141.105469 167.550781 139.132812 167.636719 137.164062 167.851562 L 137.164062 166.6875 L 139.816406 166.472656 C 140.742188 166.386719 140.902344 166.214844 140.941406 165.480469 C 140.984375 164.75 141.023438 161.519531 141.023438 154.148438 L 128.441406 154.148438 C 128.441406 161.519531 128.519531 164.75 128.558594 165.480469 C 128.601562 166.214844 128.722656 166.386719 129.644531 166.472656 L 132.300781 166.6875 L 132.300781 167.851562 C 130.328125 167.636719 128.320312 167.550781 126.347656 167.550781 C 124.378906 167.550781 122.667969 167.636719 120.660156 167.851562 Z M 120.660156 166.6875 "/>
<path fill-rule="nonzero" fill="rgb(91.764832%, 63.529968%, 0%)" fill-opacity="1" d="M 166.234375 144.648438 L 161.835938 153.925781 C 161.636719 154.359375 169.964844 154.074219 169.964844 154.074219 Z M 153.25 166.214844 C 154.855469 165.957031 155.207031 165.613281 155.8125 164.273438 L 167.210938 139.097656 L 167.964844 139.097656 L 179.113281 164.578125 C 179.5625 165.652344 180.117188 166.214844 181.324219 166.34375 L 183.332031 166.558594 L 183.480469 167.617188 C 181.523438 167.488281 179.515625 167.398438 177.507812 167.398438 C 175.046875 167.398438 173.359375 167.53125 170.796875 167.703125 L 170.496094 166.644531 C 170.496094 166.644531 174.796875 166.421875 174.175781 164.792969 L 170.316406 155.195312 C 170.316406 155.195312 162.449219 155.238281 161.285156 155.238281 L 157.667969 164.058594 C 157.46875 164.53125 157.382812 164.964844 157.367188 165.308594 C 157.324219 166.390625 160.300781 166.472656 160.300781 166.472656 L 160.300781 167.570312 C 158.796875 167.441406 153.300781 167.476562 151.59375 167.652344 L 151.390625 166.515625 Z M 153.25 166.214844 "/>
<path fill-rule="nonzero" fill="rgb(91.764832%, 63.529968%, 0%)" fill-opacity="1" d="M 184.398438 166.375 L 186.84375 166.03125 C 188.785156 165.6875 188.875 165.179688 188.875 163.195312 L 188.875 143.746094 C 188.875 143.230469 187.0625 140.925781 183.863281 140.925781 L 183.863281 139.804688 C 186.171875 140.066406 189.132812 139.898438 191.351562 139.898438 L 192.085938 139.898438 L 203.367188 161.773438 L 213.046875 139.785156 C 213.046875 139.785156 217.101562 139.839844 220.710938 139.75 L 220.710938 140.871094 C 220.710938 140.871094 216.472656 140.585938 216.472656 142.753906 C 216.472656 144.714844 216.394531 149.171875 216.394531 153.195312 C 216.394531 161.171875 216.53125 163.484375 216.53125 163.65625 C 216.625 164.476562 216.761719 166 219.101562 166.285156 L 220.519531 166.433594 L 220.519531 167.597656 C 218.628906 167.382812 216.734375 167.296875 214.796875 167.296875 C 212.859375 167.296875 210.921875 167.382812 208.9375 167.597656 L 208.9375 166.433594 L 211.105469 166.21875 C 211.84375 166.132812 212.210938 166.046875 212.304688 165.742188 C 212.488281 165.140625 212.488281 161.257812 212.488281 153.539062 C 212.488281 149.917969 212.488281 148.375 212.445312 144.925781 L 201.890625 167.722656 L 201.429688 167.722656 L 189.890625 144.3125 L 189.890625 163.195312 C 189.890625 165.222656 189.890625 165.644531 191.828125 165.945312 L 193.625 166.289062 L 193.625 167.453125 C 192.285156 167.324219 191.277344 167.238281 189.9375 167.238281 C 188.277344 167.238281 186.0625 167.367188 184.398438 167.539062 Z M 184.398438 166.375 "/>
<path fill-rule="nonzero" fill="rgb(91.764832%, 63.529968%, 0%)" fill-opacity="1" d="M 305.941406 155.222656 L 305.941406 156.472656 L 304.425781 156.511719 C 303.304688 156.597656 303.003906 156.855469 303.003906 157.933594 L 303.003906 167.363281 C 301.753906 167.492188 300.78125 163.703125 299.765625 164.71875 C 296.171875 168.3125 293.132812 168.285156 290.847656 168.285156 C 287.09375 168.285156 283.730469 167.078125 281.144531 164.578125 C 278.171875 161.6875 276.617188 157.808594 276.617188 153.28125 C 276.617188 148.839844 278.230469 144.640625 281.621094 141.984375 C 284.335938 139.851562 288.039062 139.058594 291.578125 139.058594 C 297.210938 139.058594 298.175781 142 299.855469 142.054688 C 301.132812 142.101562 301.496094 139.730469 301.753906 139.300781 L 302.703125 139.386719 C 302.617188 140.335938 302.574219 141.898438 302.574219 142.757812 L 302.574219 148.539062 L 300.914062 148.492188 C 300.394531 142.800781 296.679688 140.558594 292.054688 140.558594 C 285.457031 140.558594 282.042969 145.539062 282.042969 153.152344 C 282.042969 162.117188 285.800781 166.789062 291.664062 166.789062 C 295.503906 166.789062 299.0625 164.242188 299.0625 162.648438 L 299.0625 157.753906 C 299.0625 156.199219 295.007812 156.253906 295.007812 156.253906 L 295.007812 155.21875 C 295.007812 155.21875 303.699219 155.351562 305.941406 155.222656 "/>
<path fill-rule="nonzero" fill="rgb(91.764832%, 63.529968%, 0%)" fill-opacity="1" d="M 323.460938 166.636719 C 329.660156 166.636719 333.945312 161.875 333.945312 153.203125 C 333.945312 144.273438 330.160156 139.3125 324.097656 139.3125 C 317.902344 139.3125 313.617188 144.53125 313.617188 153.203125 C 313.617188 162.128906 317.398438 166.636719 323.460938 166.636719 M 311.566406 144.273438 C 314.574219 140.574219 318.902344 138.578125 324.097656 138.578125 C 328.628906 138.578125 329.796875 139.300781 332.210938 140.660156 C 336.769531 143.296875 339.140625 147.503906 339.140625 153.203125 C 339.140625 157.625 337.363281 161.449219 333.898438 164.339844 C 331.070312 166.679688 327.609375 167.871094 323.503906 167.871094 C 319.449219 167.871094 315.804688 166.550781 313.113281 164.171875 C 310.015625 161.40625 308.464844 157.878906 308.464844 153.542969 C 308.464844 149.929688 309.46875 146.867188 311.566406 144.273438 "/>
<path fill-rule="nonzero" fill="rgb(91.764832%, 63.529968%, 0%)" fill-opacity="1" d="M 341.3125 139.519531 C 343.359375 139.695312 344.589844 139.824219 346.679688 139.824219 C 348.816406 139.824219 350.015625 139.695312 352.199219 139.519531 L 352.199219 140.597656 L 350.859375 140.859375 C 349.359375 141.03125 349.042969 141.589844 349.042969 143.1875 L 349.042969 155.996094 C 349.042969 159.359375 349.222656 162.164062 350.269531 163.800781 C 351.542969 165.785156 353.585938 166.777344 356.308594 166.777344 C 362.078125 166.777344 364.667969 163.066406 364.667969 156.167969 L 364.667969 144.089844 C 364.667969 141.675781 364.304688 141.332031 361.945312 140.902344 L 360.652344 140.597656 L 360.652344 139.519531 C 362.332031 139.738281 363.535156 139.824219 365.214844 139.824219 C 366.894531 139.824219 368.53125 139.738281 370.164062 139.519531 L 370.164062 140.597656 L 368.484375 140.902344 C 366.394531 141.289062 366.078125 141.761719 366.078125 143.960938 L 366.078125 155.480469 C 366.078125 164.101562 362.761719 168.199219 354.8125 168.199219 C 347.726562 168.199219 344.457031 164.058594 344.457031 155.480469 L 344.457031 143.144531 C 344.457031 141.503906 344.136719 140.945312 342.546875 140.816406 L 341.3125 140.597656 Z M 341.3125 139.519531 "/>
<path fill-rule="nonzero" fill="rgb(91.764832%, 63.529968%, 0%)" fill-opacity="1" d="M 380.917969 152.433594 C 386.285156 152.433594 387.589844 150.949219 387.589844 146.421875 C 387.589844 142.542969 386.449219 140.773438 382.007812 140.773438 C 381.402344 140.773438 380.476562 140.859375 379.265625 140.945312 L 379.265625 152.390625 C 379.828125 152.433594 380.394531 152.433594 380.917969 152.433594 M 371.191406 166.453125 L 373.855469 166.238281 C 374.503906 166.195312 374.824219 166.066406 374.90625 165.765625 C 375.066406 165.160156 375.066406 161.210938 375.066406 153.367188 C 375.066406 145.648438 375.027344 142.195312 374.988281 141.851562 C 374.945312 141.074219 374.785156 140.945312 373.855469 140.859375 L 371.710938 140.851562 L 371.710938 139.773438 C 374.453125 139.992188 376.238281 139.867188 377.53125 139.867188 C 379.910156 139.867188 382.128906 139.652344 384.1875 139.652344 C 389.351562 139.652344 392.214844 142.804688 392.214844 146.597656 C 392.214844 150.175781 389.792969 151.75 385.957031 152.65625 L 385.957031 153.042969 C 389.507812 154.398438 391.429688 156.601562 392.542969 160.9375 C 393.453125 164.488281 394.148438 166.363281 397.214844 166.449219 L 397.214844 167.386719 C 396.808594 167.429688 394.964844 167.429688 394.601562 167.429688 C 392.542969 167.429688 390.195312 167.039062 389.226562 166.21875 C 388.757812 163.976562 386.191406 153.886719 383.246094 153.527344 C 382.796875 153.472656 379.882812 153.511719 379.265625 153.511719 C 379.265625 161.101562 379.34375 164.515625 379.386719 165.246094 C 379.425781 165.980469 379.546875 166.152344 380.476562 166.238281 L 382.78125 166.453125 L 382.78125 167.617188 C 380.800781 167.402344 379.144531 167.316406 377.167969 167.316406 C 375.1875 167.316406 373.210938 167.402344 371.191406 167.617188 Z M 371.191406 166.453125 "/>
<path fill-rule="nonzero" fill="rgb(91.764832%, 63.529968%, 0%)" fill-opacity="1" d="M 399.058594 166.355469 L 401.492188 166.007812 C 403.390625 165.664062 403.480469 164.84375 403.480469 162.859375 L 403.480469 143.492188 C 403.480469 142.976562 401.621094 140.9375 398.289062 140.9375 L 398.289062 139.816406 C 400.546875 140.074219 403.886719 139.902344 406.054688 139.902344 L 406.777344 139.902344 L 417.976562 161.59375 L 427.832031 139.734375 C 427.832031 139.734375 432.292969 139.929688 435.210938 139.824219 L 435.210938 140.945312 C 435.210938 140.945312 431.941406 140.574219 431.363281 142.191406 C 431.171875 142.734375 431.183594 145.914062 431.183594 153.757812 C 431.183594 161.738281 431.320312 163.707031 431.320312 163.882812 C 431.320312 166.542969 435.164062 166.40625 435.164062 166.40625 L 435.164062 167.570312 C 433.3125 167.355469 425.609375 167.308594 423.667969 167.523438 L 423.667969 166.359375 C 423.667969 166.359375 427.128906 166.824219 427.128906 163.554688 C 427.128906 161.78125 427.144531 161.257812 427.144531 153.539062 C 427.144531 149.917969 427.144531 148.425781 427.097656 144.976562 L 416.726562 167.722656 L 415.765625 167.722656 L 404.472656 144.3125 L 404.472656 162.859375 C 404.472656 164.886719 404.472656 165.621094 406.371094 165.921875 L 408.492188 166.269531 L 408.492188 167.429688 C 407.183594 167.300781 405.828125 167.214844 404.519531 167.214844 C 402.894531 167.214844 400.683594 167.34375 399.058594 167.519531 Z M 399.058594 166.355469 "/>
<path fill-rule="nonzero" fill="rgb(91.764832%, 63.529968%, 0%)" fill-opacity="1" d="M 437.191406 166.3125 C 437.191406 166.3125 438.863281 166.386719 439.433594 166.304688 C 440.679688 166.117188 441.410156 165.183594 441.441406 161.078125 C 441.457031 159.101562 441.453125 156.53125 441.453125 153.367188 C 441.453125 145.648438 441.378906 143.148438 441.378906 142.800781 C 441.378906 140.351562 438.144531 140.511719 438.144531 140.511719 L 438.144531 139.433594 C 440.886719 139.648438 454.023438 139.515625 457.554688 139.355469 L 457.554688 145.945312 L 456.390625 145.945312 C 456.238281 141.203125 454.289062 140.8125 448.003906 140.8125 C 446.839844 140.8125 447.019531 140.855469 445.289062 140.941406 L 445.289062 153 C 446.304688 153.042969 448.476562 153.085938 449.078125 153.085938 C 452.734375 153.085938 453.777344 152.597656 453.777344 149.070312 L 455.019531 149.070312 C 454.941406 150.882812 454.90625 151.203125 454.90625 153.144531 C 454.90625 155.039062 454.941406 154.980469 455.019531 157.007812 L 453.777344 157.007812 C 453.777344 153.691406 450.027344 154.164062 449.378906 154.164062 L 445.289062 154.164062 L 445.289062 162.464844 C 445.289062 165.785156 444.761719 166.34375 448.179688 166.34375 C 456.242188 166.34375 455.648438 166.078125 456.765625 160.796875 L 458.117188 160.796875 L 457.710938 167.476562 C 453.238281 167.261719 440.839844 167.175781 437.191406 167.476562 Z M 437.191406 166.3125 "/>
<path fill-rule="nonzero" fill="rgb(91.764832%, 63.529968%, 0%)" fill-opacity="1" d="M 467.476562 166.179688 L 470.257812 165.960938 C 470.914062 165.917969 471.199219 165.789062 471.28125 165.488281 C 471.40625 164.972656 471.488281 161.214844 471.488281 153.148438 C 471.488281 149.746094 471.445312 145.945312 471.40625 140.597656 L 469.207031 140.597656 C 463.964844 140.597656 463.175781 143.003906 462.601562 147.574219 L 461.578125 147.574219 C 461.699219 145.332031 461.742188 143.484375 461.742188 143.011719 L 461.742188 139.546875 C 463.585938 139.71875 482.996094 139.847656 485.574219 139.546875 C 485.53125 141.441406 485.53125 142.839844 485.53125 144.5625 L 485.53125 147.1875 L 484.550781 147.1875 C 484.320312 143.132812 484.277344 140.914062 479.25 140.628906 C 478.878906 140.609375 476.574219 140.597656 476.167969 140.597656 C 476.085938 145.554688 476.042969 149.3125 476.042969 153.019531 C 476.042969 160.78125 476.125 164.410156 476.167969 164.972656 C 476.207031 165.703125 476.371094 165.875 477.3125 165.960938 L 479.757812 166.179688 L 479.757812 167.34375 C 477.710938 167.167969 469.523438 167.167969 467.476562 167.34375 Z M 467.476562 166.179688 "/>
<path fill-rule="nonzero" fill="rgb(91.764832%, 63.529968%, 0%)" fill-opacity="1" d="M 241.839844 162.714844 C 241.527344 162.714844 241.210938 162.617188 240.9375 162.417969 C 240.253906 161.917969 240.105469 160.960938 240.605469 160.277344 L 248.636719 149.257812 C 249.136719 148.570312 250.097656 148.421875 250.78125 148.921875 C 251.464844 149.417969 251.613281 150.378906 251.117188 151.0625 L 243.082031 162.082031 C 242.78125 162.496094 242.3125 162.714844 241.839844 162.714844 "/>
<path fill-rule="nonzero" fill="rgb(91.764832%, 63.529968%, 0%)" fill-opacity="1" d="M 240.65625 146.132812 L 233.402344 156.300781 C 233.34375 156.378906 233.257812 156.417969 233.167969 156.417969 C 233.109375 156.417969 233.050781 156.402344 233 156.367188 C 232.871094 156.273438 232.84375 156.09375 232.933594 155.964844 L 240.1875 145.796875 C 240.277344 145.667969 240.457031 145.636719 240.585938 145.730469 C 240.714844 145.824219 240.746094 146 240.65625 146.132812 M 242.320312 144.445312 C 241.636719 143.941406 240.679688 144.089844 240.179688 144.773438 L 232.003906 155.9375 C 231.503906 156.621094 231.652344 157.578125 232.332031 158.078125 C 232.605469 158.28125 232.921875 158.375 233.238281 158.375 C 233.710938 158.375 234.175781 158.160156 234.476562 157.75 L 242.652344 146.585938 C 243.152344 145.902344 243.003906 144.945312 242.320312 144.445312 "/>
<path fill-rule="nonzero" fill="rgb(91.764832%, 63.529968%, 0%)" fill-opacity="1" d="M 246.484375 146.273438 L 236.957031 159.78125 C 236.902344 159.859375 236.8125 159.902344 236.722656 159.902344 C 236.664062 159.902344 236.609375 159.886719 236.558594 159.851562 C 236.429688 159.761719 236.398438 159.578125 236.488281 159.449219 L 246.015625 145.941406 C 246.109375 145.8125 246.285156 145.78125 246.417969 145.871094 C 246.546875 145.964844 246.578125 146.140625 246.484375 146.273438 M 247.769531 144.851562 C 247.078125 144.367188 246.121094 144.535156 245.636719 145.226562 L 235.609375 159.519531 C 235.125 160.210938 235.292969 161.167969 235.984375 161.652344 C 236.253906 161.839844 236.558594 161.929688 236.863281 161.929688 C 237.347656 161.929688 237.820312 161.703125 238.121094 161.277344 L 248.144531 146.988281 C 248.632812 146.292969 248.464844 145.339844 247.769531 144.851562 "/>
<path fill-rule="nonzero" fill="rgb(91.764832%, 63.529968%, 0%)" fill-opacity="1" d="M 242.765625 169.351562 C 234.105469 169.351562 227.058594 162.304688 227.058594 153.644531 C 227.058594 144.984375 234.105469 137.941406 242.765625 137.941406 C 251.425781 137.941406 258.46875 144.984375 258.46875 153.644531 C 258.46875 162.304688 251.425781 169.351562 242.765625 169.351562 M 230.335938 140.140625 C 230.386719 140.09375 231.546875 138.980469 233.664062 137.851562 C 235.613281 136.816406 238.777344 135.582031 242.765625 135.582031 C 246.757812 135.582031 249.960938 136.894531 251.945312 138 C 254.097656 139.195312 255.292969 140.378906 255.34375 140.429688 C 255.453125 140.539062 255.453125 140.722656 255.34375 140.835938 C 255.285156 140.890625 255.210938 140.917969 255.140625 140.917969 C 255.066406 140.917969 254.992188 140.890625 254.933594 140.835938 C 254.925781 140.824219 253.738281 139.648438 251.648438 138.488281 C 249.726562 137.425781 246.625 136.152344 242.765625 136.152344 C 238.90625 136.152344 235.84375 137.347656 233.953125 138.351562 C 231.902344 139.4375 230.75 140.542969 230.738281 140.554688 C 230.621094 140.664062 230.441406 140.660156 230.332031 140.546875 C 230.21875 140.433594 230.222656 140.25 230.335938 140.140625 M 242.765625 134.875 C 232.398438 134.875 223.996094 143.277344 223.996094 153.644531 C 223.996094 164.011719 232.398438 172.414062 242.765625 172.414062 C 253.132812 172.414062 261.535156 164.011719 261.535156 153.644531 C 261.535156 143.277344 253.132812 134.875 242.765625 134.875 "/>
<g fill="rgb(100%, 100%, 100%)" fill-opacity="1">
<use xlink:href="#glyph-1-0" x="179.0278" y="410.7676"/>
<use xlink:href="#glyph-1-1" x="242.127046" y="410.7676"/>
<use xlink:href="#glyph-1-2" x="283.381491" y="410.7676"/>
<use xlink:href="#glyph-1-3" x="341.25231" y="410.7676"/>
</g>
<path fill="none" stroke-width="1" stroke-linecap="round" stroke-linejoin="round" stroke="rgb(99.607849%, 82.35321%, 47.058105%)" stroke-opacity="1" stroke-miterlimit="10" d="M -0.0005875 0.00158125 L 138.733788 0.00158125 " transform="matrix(1, 0, 0, -1, 418.1959, 380.7633)"/>
<path fill="none" stroke-width="1" stroke-linecap="round" stroke-linejoin="round" stroke="rgb(99.607849%, 82.35321%, 47.058105%)" stroke-opacity="1" stroke-miterlimit="10" d="M -0.0006875 0.00158125 L 138.733688 0.00158125 " transform="matrix(1, 0, 0, -1, 20.0085, 380.7633)"/>
<path fill="none" stroke-width="1" stroke-linecap="round" stroke-linejoin="round" stroke="rgb(99.607849%, 82.35321%, 47.058105%)" stroke-opacity="1" stroke-miterlimit="10" d="M 0 -0.00114375 L 576 -0.00114375 " transform="matrix(1, 0, 0, -1, 0, 679.4012)"/>
<path fill="none" stroke-width="1" stroke-linecap="round" stroke-linejoin="round" stroke="rgb(99.607849%, 82.35321%, 47.058105%)" stroke-opacity="1" stroke-miterlimit="10" d="M 0 0.00065625 L 576 0.00065625 " transform="matrix(1, 0, 0, -1, 0, 718.2155)"/>
</svg>
